<mxfile host="app.diagrams.net" agent="Mozilla/5.0 (Windows NT 10.0; Win64; x64) AppleWebKit/537.36 (KHTML, like Gecko) Chrome/131.0.0.0 Safari/537.36 Edg/131.0.0.0" version="26.0.4">
  <diagram name="第 1 页" id="Mih1VsMYgLBi8knapmAl">
    <mxGraphModel dx="1141" dy="662" grid="1" gridSize="10" guides="1" tooltips="1" connect="1" arrows="1" fold="1" page="1" pageScale="1" pageWidth="827" pageHeight="1169" background="none" math="0" shadow="0">
      <root>
        <mxCell id="0" />
        <mxCell id="1" parent="0" />
        <mxCell id="jISEXOWeR0vg6BHdLISb-44" value="地板" style="rounded=0;whiteSpace=wrap;html=1;shadow=0;glass=0;strokeColor=#9673a6;fillColor=#e1d5e7;" vertex="1" parent="1">
          <mxGeometry width="40" height="40" as="geometry" />
        </mxCell>
        <mxCell id="jISEXOWeR0vg6BHdLISb-45" value="墙" style="rounded=0;whiteSpace=wrap;html=1;shadow=0;glass=0;strokeColor=#d79b00;fillColor=#ffe6cc;" vertex="1" parent="1">
          <mxGeometry x="40" width="40" height="40" as="geometry" />
        </mxCell>
        <mxCell id="jISEXOWeR0vg6BHdLISb-46" value="深水" style="rounded=0;whiteSpace=wrap;html=1;shadow=0;glass=0;strokeColor=#001DBC;fillColor=#0050ef;fontColor=#ffffff;" vertex="1" parent="1">
          <mxGeometry x="80" width="40" height="40" as="geometry" />
        </mxCell>
        <mxCell id="jISEXOWeR0vg6BHdLISb-47" value="浅水" style="rounded=0;whiteSpace=wrap;html=1;shadow=0;glass=0;strokeColor=#6c8ebf;fillColor=#dae8fc;" vertex="1" parent="1">
          <mxGeometry x="120" width="40" height="40" as="geometry" />
        </mxCell>
        <mxCell id="jISEXOWeR0vg6BHdLISb-48" value="" style="rounded=0;whiteSpace=wrap;html=1;shadow=0;glass=0;strokeColor=#9673a6;fillColor=#e1d5e7;" vertex="1" parent="1">
          <mxGeometry y="120" width="40" height="40" as="geometry" />
        </mxCell>
        <mxCell id="jISEXOWeR0vg6BHdLISb-52" value="" style="rounded=0;whiteSpace=wrap;html=1;shadow=0;glass=0;strokeColor=#d79b00;fillColor=#ffe6cc;" vertex="1" parent="1">
          <mxGeometry x="40" y="120" width="40" height="40" as="geometry" />
        </mxCell>
        <mxCell id="jISEXOWeR0vg6BHdLISb-53" value="" style="rounded=0;whiteSpace=wrap;html=1;shadow=0;glass=0;strokeColor=#001DBC;fillColor=#0050ef;fontColor=#ffffff;" vertex="1" parent="1">
          <mxGeometry x="80" y="120" width="40" height="40" as="geometry" />
        </mxCell>
        <mxCell id="jISEXOWeR0vg6BHdLISb-54" value="" style="rounded=0;whiteSpace=wrap;html=1;shadow=0;glass=0;strokeColor=#6c8ebf;fillColor=#dae8fc;" vertex="1" parent="1">
          <mxGeometry x="120" y="120" width="40" height="40" as="geometry" />
        </mxCell>
        <mxCell id="jISEXOWeR0vg6BHdLISb-55" value="" style="rounded=0;whiteSpace=wrap;html=1;shadow=0;glass=0;strokeColor=#9673a6;fillColor=#e1d5e7;" vertex="1" parent="1">
          <mxGeometry x="280" y="480" width="40" height="40" as="geometry" />
        </mxCell>
        <mxCell id="jISEXOWeR0vg6BHdLISb-57" value="" style="rounded=0;whiteSpace=wrap;html=1;shadow=0;glass=0;strokeColor=#9673a6;fillColor=#e1d5e7;" vertex="1" parent="1">
          <mxGeometry x="320" y="480" width="40" height="40" as="geometry" />
        </mxCell>
        <mxCell id="jISEXOWeR0vg6BHdLISb-58" value="" style="rounded=0;whiteSpace=wrap;html=1;shadow=0;glass=0;strokeColor=#9673a6;fillColor=#e1d5e7;" vertex="1" parent="1">
          <mxGeometry x="360" y="480" width="40" height="40" as="geometry" />
        </mxCell>
        <mxCell id="jISEXOWeR0vg6BHdLISb-59" value="" style="rounded=0;whiteSpace=wrap;html=1;shadow=0;glass=0;strokeColor=#9673a6;fillColor=#e1d5e7;" vertex="1" parent="1">
          <mxGeometry x="400" y="480" width="40" height="40" as="geometry" />
        </mxCell>
        <mxCell id="jISEXOWeR0vg6BHdLISb-60" value="" style="rounded=0;whiteSpace=wrap;html=1;shadow=0;glass=0;strokeColor=#9673a6;fillColor=#e1d5e7;" vertex="1" parent="1">
          <mxGeometry x="280" y="520" width="40" height="40" as="geometry" />
        </mxCell>
        <mxCell id="jISEXOWeR0vg6BHdLISb-61" value="" style="rounded=0;whiteSpace=wrap;html=1;shadow=0;glass=0;strokeColor=#9673a6;fillColor=#e1d5e7;" vertex="1" parent="1">
          <mxGeometry x="320" y="520" width="40" height="40" as="geometry" />
        </mxCell>
        <mxCell id="jISEXOWeR0vg6BHdLISb-62" value="" style="rounded=0;whiteSpace=wrap;html=1;shadow=0;glass=0;strokeColor=#9673a6;fillColor=#e1d5e7;" vertex="1" parent="1">
          <mxGeometry x="360" y="520" width="40" height="40" as="geometry" />
        </mxCell>
        <mxCell id="jISEXOWeR0vg6BHdLISb-63" value="" style="rounded=0;whiteSpace=wrap;html=1;shadow=0;glass=0;strokeColor=#9673a6;fillColor=#e1d5e7;" vertex="1" parent="1">
          <mxGeometry x="400" y="520" width="40" height="40" as="geometry" />
        </mxCell>
        <mxCell id="jISEXOWeR0vg6BHdLISb-64" value="" style="rounded=0;whiteSpace=wrap;html=1;shadow=0;glass=0;strokeColor=#9673a6;fillColor=#e1d5e7;" vertex="1" parent="1">
          <mxGeometry x="280" y="560" width="40" height="40" as="geometry" />
        </mxCell>
        <mxCell id="jISEXOWeR0vg6BHdLISb-65" value="" style="rounded=0;whiteSpace=wrap;html=1;shadow=0;glass=0;strokeColor=#9673a6;fillColor=#e1d5e7;" vertex="1" parent="1">
          <mxGeometry x="320" y="560" width="40" height="40" as="geometry" />
        </mxCell>
        <mxCell id="jISEXOWeR0vg6BHdLISb-66" value="" style="rounded=0;whiteSpace=wrap;html=1;shadow=0;glass=0;strokeColor=#9673a6;fillColor=#e1d5e7;" vertex="1" parent="1">
          <mxGeometry x="360" y="560" width="40" height="40" as="geometry" />
        </mxCell>
        <mxCell id="jISEXOWeR0vg6BHdLISb-67" value="" style="rounded=0;whiteSpace=wrap;html=1;shadow=0;glass=0;strokeColor=#9673a6;fillColor=#e1d5e7;" vertex="1" parent="1">
          <mxGeometry x="400" y="560" width="40" height="40" as="geometry" />
        </mxCell>
        <mxCell id="jISEXOWeR0vg6BHdLISb-68" value="" style="rounded=0;whiteSpace=wrap;html=1;shadow=0;glass=0;strokeColor=#9673a6;fillColor=#e1d5e7;" vertex="1" parent="1">
          <mxGeometry x="80" y="640" width="40" height="40" as="geometry" />
        </mxCell>
        <mxCell id="jISEXOWeR0vg6BHdLISb-69" value="" style="rounded=0;whiteSpace=wrap;html=1;shadow=0;glass=0;strokeColor=#9673a6;fillColor=#e1d5e7;" vertex="1" parent="1">
          <mxGeometry x="120" y="640" width="40" height="40" as="geometry" />
        </mxCell>
        <mxCell id="jISEXOWeR0vg6BHdLISb-70" value="" style="rounded=0;whiteSpace=wrap;html=1;shadow=0;glass=0;strokeColor=#9673a6;fillColor=#e1d5e7;" vertex="1" parent="1">
          <mxGeometry x="160" y="640" width="40" height="40" as="geometry" />
        </mxCell>
        <mxCell id="jISEXOWeR0vg6BHdLISb-71" value="" style="rounded=0;whiteSpace=wrap;html=1;shadow=0;glass=0;strokeColor=#9673a6;fillColor=#e1d5e7;" vertex="1" parent="1">
          <mxGeometry x="200" y="640" width="40" height="40" as="geometry" />
        </mxCell>
        <mxCell id="jISEXOWeR0vg6BHdLISb-72" value="" style="rounded=0;whiteSpace=wrap;html=1;shadow=0;glass=0;strokeColor=#9673a6;fillColor=#e1d5e7;" vertex="1" parent="1">
          <mxGeometry x="80" y="680" width="40" height="40" as="geometry" />
        </mxCell>
        <mxCell id="jISEXOWeR0vg6BHdLISb-73" value="" style="rounded=0;whiteSpace=wrap;html=1;shadow=0;glass=0;strokeColor=#9673a6;fillColor=#e1d5e7;" vertex="1" parent="1">
          <mxGeometry x="120" y="680" width="40" height="40" as="geometry" />
        </mxCell>
        <mxCell id="jISEXOWeR0vg6BHdLISb-74" value="" style="rounded=0;whiteSpace=wrap;html=1;shadow=0;glass=0;strokeColor=#9673a6;fillColor=#e1d5e7;" vertex="1" parent="1">
          <mxGeometry x="160" y="680" width="40" height="40" as="geometry" />
        </mxCell>
        <mxCell id="jISEXOWeR0vg6BHdLISb-75" value="" style="rounded=0;whiteSpace=wrap;html=1;shadow=0;glass=0;strokeColor=#9673a6;fillColor=#e1d5e7;" vertex="1" parent="1">
          <mxGeometry x="200" y="680" width="40" height="40" as="geometry" />
        </mxCell>
        <mxCell id="jISEXOWeR0vg6BHdLISb-76" value="" style="rounded=0;whiteSpace=wrap;html=1;shadow=0;glass=0;strokeColor=#9673a6;fillColor=#e1d5e7;" vertex="1" parent="1">
          <mxGeometry x="80" y="720" width="40" height="40" as="geometry" />
        </mxCell>
        <mxCell id="jISEXOWeR0vg6BHdLISb-77" value="" style="rounded=0;whiteSpace=wrap;html=1;shadow=0;glass=0;strokeColor=#9673a6;fillColor=#e1d5e7;" vertex="1" parent="1">
          <mxGeometry x="120" y="720" width="40" height="40" as="geometry" />
        </mxCell>
        <mxCell id="jISEXOWeR0vg6BHdLISb-78" value="" style="rounded=0;whiteSpace=wrap;html=1;shadow=0;glass=0;strokeColor=#9673a6;fillColor=#e1d5e7;" vertex="1" parent="1">
          <mxGeometry x="160" y="720" width="40" height="40" as="geometry" />
        </mxCell>
        <mxCell id="jISEXOWeR0vg6BHdLISb-79" value="" style="rounded=0;whiteSpace=wrap;html=1;shadow=0;glass=0;strokeColor=#9673a6;fillColor=#e1d5e7;" vertex="1" parent="1">
          <mxGeometry x="200" y="720" width="40" height="40" as="geometry" />
        </mxCell>
        <mxCell id="jISEXOWeR0vg6BHdLISb-80" value="" style="rounded=0;whiteSpace=wrap;html=1;shadow=0;glass=0;strokeColor=#9673a6;fillColor=#e1d5e7;" vertex="1" parent="1">
          <mxGeometry x="240" y="640" width="40" height="40" as="geometry" />
        </mxCell>
        <mxCell id="jISEXOWeR0vg6BHdLISb-81" value="" style="rounded=0;whiteSpace=wrap;html=1;shadow=0;glass=0;strokeColor=#9673a6;fillColor=#e1d5e7;" vertex="1" parent="1">
          <mxGeometry x="240" y="680" width="40" height="40" as="geometry" />
        </mxCell>
        <mxCell id="jISEXOWeR0vg6BHdLISb-82" value="" style="rounded=0;whiteSpace=wrap;html=1;shadow=0;glass=0;strokeColor=#9673a6;fillColor=#e1d5e7;" vertex="1" parent="1">
          <mxGeometry x="240" y="720" width="40" height="40" as="geometry" />
        </mxCell>
        <mxCell id="jISEXOWeR0vg6BHdLISb-88" value="" style="rounded=0;whiteSpace=wrap;html=1;shadow=0;glass=0;strokeColor=#9673a6;fillColor=#e1d5e7;" vertex="1" parent="1">
          <mxGeometry x="200" y="560" width="40" height="40" as="geometry" />
        </mxCell>
        <mxCell id="jISEXOWeR0vg6BHdLISb-89" value="" style="rounded=0;whiteSpace=wrap;html=1;shadow=0;glass=0;strokeColor=#9673a6;fillColor=#e1d5e7;" vertex="1" parent="1">
          <mxGeometry x="200" y="600" width="40" height="40" as="geometry" />
        </mxCell>
        <mxCell id="jISEXOWeR0vg6BHdLISb-90" value="门" style="rounded=0;whiteSpace=wrap;html=1;shadow=0;glass=0;strokeColor=#82b366;fillColor=#d5e8d4;" vertex="1" parent="1">
          <mxGeometry x="240" y="520" width="40" height="40" as="geometry" />
        </mxCell>
        <mxCell id="jISEXOWeR0vg6BHdLISb-91" value="" style="rounded=0;whiteSpace=wrap;html=1;shadow=0;glass=0;strokeColor=#9673a6;fillColor=#e1d5e7;" vertex="1" parent="1">
          <mxGeometry x="200" y="520" width="40" height="40" as="geometry" />
        </mxCell>
        <mxCell id="jISEXOWeR0vg6BHdLISb-95" value="" style="rounded=0;whiteSpace=wrap;html=1;shadow=0;glass=0;strokeColor=#001DBC;fillColor=#0050ef;fontColor=#ffffff;" vertex="1" parent="1">
          <mxGeometry x="160" y="640" width="40" height="40" as="geometry" />
        </mxCell>
        <mxCell id="jISEXOWeR0vg6BHdLISb-97" value="" style="rounded=0;whiteSpace=wrap;html=1;shadow=0;glass=0;strokeColor=#001DBC;fillColor=#0050ef;fontColor=#ffffff;" vertex="1" parent="1">
          <mxGeometry x="200" y="600" width="40" height="40" as="geometry" />
        </mxCell>
        <mxCell id="jISEXOWeR0vg6BHdLISb-98" value="" style="rounded=0;whiteSpace=wrap;html=1;shadow=0;glass=0;strokeColor=#001DBC;fillColor=#0050ef;fontColor=#ffffff;" vertex="1" parent="1">
          <mxGeometry x="160" y="640" width="40" height="40" as="geometry" />
        </mxCell>
        <mxCell id="jISEXOWeR0vg6BHdLISb-99" value="" style="rounded=0;whiteSpace=wrap;html=1;shadow=0;glass=0;strokeColor=#001DBC;fillColor=#0050ef;fontColor=#ffffff;" vertex="1" parent="1">
          <mxGeometry x="200" y="640" width="40" height="40" as="geometry" />
        </mxCell>
        <mxCell id="jISEXOWeR0vg6BHdLISb-100" value="" style="rounded=0;whiteSpace=wrap;html=1;shadow=0;glass=0;strokeColor=#6c8ebf;fillColor=#dae8fc;" vertex="1" parent="1">
          <mxGeometry x="200" y="520" width="40" height="40" as="geometry" />
        </mxCell>
        <mxCell id="jISEXOWeR0vg6BHdLISb-101" value="" style="rounded=0;whiteSpace=wrap;html=1;shadow=0;glass=0;strokeColor=#6c8ebf;fillColor=#dae8fc;" vertex="1" parent="1">
          <mxGeometry x="200" y="560" width="40" height="40" as="geometry" />
        </mxCell>
        <mxCell id="jISEXOWeR0vg6BHdLISb-102" value="" style="rounded=0;whiteSpace=wrap;html=1;shadow=0;glass=0;strokeColor=#6c8ebf;fillColor=#dae8fc;" vertex="1" parent="1">
          <mxGeometry x="120" y="640" width="40" height="40" as="geometry" />
        </mxCell>
        <mxCell id="jISEXOWeR0vg6BHdLISb-103" value="" style="rounded=0;whiteSpace=wrap;html=1;shadow=0;glass=0;strokeColor=#6c8ebf;fillColor=#dae8fc;" vertex="1" parent="1">
          <mxGeometry x="80" y="640" width="40" height="40" as="geometry" />
        </mxCell>
        <mxCell id="jISEXOWeR0vg6BHdLISb-104" value="" style="rounded=0;whiteSpace=wrap;html=1;shadow=0;glass=0;strokeColor=#6c8ebf;fillColor=#dae8fc;" vertex="1" parent="1">
          <mxGeometry x="240" y="640" width="40" height="40" as="geometry" />
        </mxCell>
        <mxCell id="jISEXOWeR0vg6BHdLISb-105" value="" style="rounded=0;whiteSpace=wrap;html=1;shadow=0;glass=0;strokeColor=#6c8ebf;fillColor=#dae8fc;" vertex="1" parent="1">
          <mxGeometry x="200" y="680" width="40" height="40" as="geometry" />
        </mxCell>
        <mxCell id="jISEXOWeR0vg6BHdLISb-106" value="" style="rounded=0;whiteSpace=wrap;html=1;shadow=0;glass=0;strokeColor=#6c8ebf;fillColor=#dae8fc;" vertex="1" parent="1">
          <mxGeometry x="160" y="680" width="40" height="40" as="geometry" />
        </mxCell>
        <mxCell id="jISEXOWeR0vg6BHdLISb-107" value="" style="rounded=0;whiteSpace=wrap;html=1;shadow=0;glass=0;strokeColor=#6c8ebf;fillColor=#dae8fc;" vertex="1" parent="1">
          <mxGeometry x="160" y="720" width="40" height="40" as="geometry" />
        </mxCell>
        <mxCell id="jISEXOWeR0vg6BHdLISb-108" value="" style="rounded=0;whiteSpace=wrap;html=1;shadow=0;glass=0;strokeColor=#6c8ebf;fillColor=#dae8fc;" vertex="1" parent="1">
          <mxGeometry x="200" y="720" width="40" height="40" as="geometry" />
        </mxCell>
        <mxCell id="jISEXOWeR0vg6BHdLISb-109" value="" style="rounded=0;whiteSpace=wrap;html=1;shadow=0;glass=0;strokeColor=#6c8ebf;fillColor=#dae8fc;" vertex="1" parent="1">
          <mxGeometry x="240" y="680" width="40" height="40" as="geometry" />
        </mxCell>
        <mxCell id="jISEXOWeR0vg6BHdLISb-110" value="" style="rounded=0;whiteSpace=wrap;html=1;shadow=0;glass=0;strokeColor=#6c8ebf;fillColor=#dae8fc;" vertex="1" parent="1">
          <mxGeometry x="240" y="720" width="40" height="40" as="geometry" />
        </mxCell>
        <mxCell id="jISEXOWeR0vg6BHdLISb-111" value="" style="rounded=0;whiteSpace=wrap;html=1;shadow=0;glass=0;strokeColor=#6c8ebf;fillColor=#dae8fc;" vertex="1" parent="1">
          <mxGeometry x="120" y="680" width="40" height="40" as="geometry" />
        </mxCell>
        <mxCell id="jISEXOWeR0vg6BHdLISb-112" value="" style="rounded=0;whiteSpace=wrap;html=1;shadow=0;glass=0;strokeColor=#6c8ebf;fillColor=#dae8fc;" vertex="1" parent="1">
          <mxGeometry x="120" y="720" width="40" height="40" as="geometry" />
        </mxCell>
        <mxCell id="jISEXOWeR0vg6BHdLISb-113" value="" style="rounded=0;whiteSpace=wrap;html=1;shadow=0;glass=0;strokeColor=#6c8ebf;fillColor=#dae8fc;" vertex="1" parent="1">
          <mxGeometry x="80" y="680" width="40" height="40" as="geometry" />
        </mxCell>
        <mxCell id="jISEXOWeR0vg6BHdLISb-114" value="" style="rounded=0;whiteSpace=wrap;html=1;shadow=0;glass=0;strokeColor=#6c8ebf;fillColor=#dae8fc;" vertex="1" parent="1">
          <mxGeometry x="80" y="720" width="40" height="40" as="geometry" />
        </mxCell>
        <mxCell id="jISEXOWeR0vg6BHdLISb-115" value="" style="rounded=0;whiteSpace=wrap;html=1;shadow=0;glass=0;strokeColor=#d79b00;fillColor=#ffe6cc;" vertex="1" parent="1">
          <mxGeometry x="80" y="600" width="40" height="40" as="geometry" />
        </mxCell>
        <mxCell id="jISEXOWeR0vg6BHdLISb-116" value="" style="rounded=0;whiteSpace=wrap;html=1;shadow=0;glass=0;strokeColor=#d79b00;fillColor=#ffe6cc;" vertex="1" parent="1">
          <mxGeometry x="120" y="600" width="40" height="40" as="geometry" />
        </mxCell>
        <mxCell id="jISEXOWeR0vg6BHdLISb-117" value="" style="rounded=0;whiteSpace=wrap;html=1;shadow=0;glass=0;strokeColor=#d79b00;fillColor=#ffe6cc;" vertex="1" parent="1">
          <mxGeometry x="160" y="600" width="40" height="40" as="geometry" />
        </mxCell>
        <mxCell id="jISEXOWeR0vg6BHdLISb-118" value="" style="rounded=0;whiteSpace=wrap;html=1;shadow=0;glass=0;strokeColor=#d79b00;fillColor=#ffe6cc;" vertex="1" parent="1">
          <mxGeometry x="80" y="760" width="40" height="40" as="geometry" />
        </mxCell>
        <mxCell id="jISEXOWeR0vg6BHdLISb-119" value="" style="rounded=0;whiteSpace=wrap;html=1;shadow=0;glass=0;strokeColor=#d79b00;fillColor=#ffe6cc;" vertex="1" parent="1">
          <mxGeometry x="120" y="760" width="40" height="40" as="geometry" />
        </mxCell>
        <mxCell id="jISEXOWeR0vg6BHdLISb-120" value="" style="rounded=0;whiteSpace=wrap;html=1;shadow=0;glass=0;strokeColor=#d79b00;fillColor=#ffe6cc;" vertex="1" parent="1">
          <mxGeometry x="160" y="760" width="40" height="40" as="geometry" />
        </mxCell>
        <mxCell id="jISEXOWeR0vg6BHdLISb-121" value="" style="rounded=0;whiteSpace=wrap;html=1;shadow=0;glass=0;strokeColor=#d79b00;fillColor=#ffe6cc;" vertex="1" parent="1">
          <mxGeometry x="200" y="760" width="40" height="40" as="geometry" />
        </mxCell>
        <mxCell id="jISEXOWeR0vg6BHdLISb-122" value="" style="rounded=0;whiteSpace=wrap;html=1;shadow=0;glass=0;strokeColor=#d79b00;fillColor=#ffe6cc;" vertex="1" parent="1">
          <mxGeometry x="240" y="760" width="40" height="40" as="geometry" />
        </mxCell>
        <mxCell id="jISEXOWeR0vg6BHdLISb-123" value="" style="rounded=0;whiteSpace=wrap;html=1;shadow=0;glass=0;strokeColor=#d79b00;fillColor=#ffe6cc;" vertex="1" parent="1">
          <mxGeometry x="280" y="760" width="40" height="40" as="geometry" />
        </mxCell>
        <mxCell id="jISEXOWeR0vg6BHdLISb-124" value="" style="rounded=0;whiteSpace=wrap;html=1;shadow=0;glass=0;strokeColor=#d79b00;fillColor=#ffe6cc;" vertex="1" parent="1">
          <mxGeometry x="280" y="600" width="40" height="40" as="geometry" />
        </mxCell>
        <mxCell id="jISEXOWeR0vg6BHdLISb-125" value="" style="rounded=0;whiteSpace=wrap;html=1;shadow=0;glass=0;strokeColor=#d79b00;fillColor=#ffe6cc;" vertex="1" parent="1">
          <mxGeometry x="320" y="600" width="40" height="40" as="geometry" />
        </mxCell>
        <mxCell id="jISEXOWeR0vg6BHdLISb-126" value="" style="rounded=0;whiteSpace=wrap;html=1;shadow=0;glass=0;strokeColor=#d79b00;fillColor=#ffe6cc;" vertex="1" parent="1">
          <mxGeometry x="360" y="600" width="40" height="40" as="geometry" />
        </mxCell>
        <mxCell id="jISEXOWeR0vg6BHdLISb-127" value="" style="rounded=0;whiteSpace=wrap;html=1;shadow=0;glass=0;strokeColor=#d79b00;fillColor=#ffe6cc;" vertex="1" parent="1">
          <mxGeometry x="280" y="440" width="40" height="40" as="geometry" />
        </mxCell>
        <mxCell id="jISEXOWeR0vg6BHdLISb-128" value="" style="rounded=0;whiteSpace=wrap;html=1;shadow=0;glass=0;strokeColor=#d79b00;fillColor=#ffe6cc;" vertex="1" parent="1">
          <mxGeometry x="320" y="440" width="40" height="40" as="geometry" />
        </mxCell>
        <mxCell id="jISEXOWeR0vg6BHdLISb-129" value="" style="rounded=0;whiteSpace=wrap;html=1;shadow=0;glass=0;strokeColor=#d79b00;fillColor=#ffe6cc;" vertex="1" parent="1">
          <mxGeometry x="360" y="440" width="40" height="40" as="geometry" />
        </mxCell>
        <mxCell id="jISEXOWeR0vg6BHdLISb-130" value="" style="rounded=0;whiteSpace=wrap;html=1;shadow=0;glass=0;strokeColor=#d79b00;fillColor=#ffe6cc;" vertex="1" parent="1">
          <mxGeometry x="160" y="480" width="40" height="40" as="geometry" />
        </mxCell>
        <mxCell id="jISEXOWeR0vg6BHdLISb-131" value="" style="rounded=0;whiteSpace=wrap;html=1;shadow=0;glass=0;strokeColor=#d79b00;fillColor=#ffe6cc;" vertex="1" parent="1">
          <mxGeometry x="200" y="480" width="40" height="40" as="geometry" />
        </mxCell>
        <mxCell id="jISEXOWeR0vg6BHdLISb-132" value="" style="rounded=0;whiteSpace=wrap;html=1;shadow=0;glass=0;strokeColor=#d79b00;fillColor=#ffe6cc;" vertex="1" parent="1">
          <mxGeometry x="240" y="480" width="40" height="40" as="geometry" />
        </mxCell>
        <mxCell id="jISEXOWeR0vg6BHdLISb-133" value="" style="rounded=0;whiteSpace=wrap;html=1;shadow=0;glass=0;strokeColor=#d79b00;fillColor=#ffe6cc;" vertex="1" parent="1">
          <mxGeometry x="400" y="600" width="40" height="40" as="geometry" />
        </mxCell>
        <mxCell id="jISEXOWeR0vg6BHdLISb-134" value="" style="rounded=0;whiteSpace=wrap;html=1;shadow=0;glass=0;strokeColor=#d79b00;fillColor=#ffe6cc;" vertex="1" parent="1">
          <mxGeometry x="440" y="600" width="40" height="40" as="geometry" />
        </mxCell>
        <mxCell id="jISEXOWeR0vg6BHdLISb-135" value="" style="rounded=0;whiteSpace=wrap;html=1;shadow=0;glass=0;strokeColor=#d79b00;fillColor=#ffe6cc;" vertex="1" parent="1">
          <mxGeometry x="400" y="440" width="40" height="40" as="geometry" />
        </mxCell>
        <mxCell id="jISEXOWeR0vg6BHdLISb-136" value="" style="rounded=0;whiteSpace=wrap;html=1;shadow=0;glass=0;strokeColor=#d79b00;fillColor=#ffe6cc;" vertex="1" parent="1">
          <mxGeometry x="440" y="440" width="40" height="40" as="geometry" />
        </mxCell>
        <mxCell id="jISEXOWeR0vg6BHdLISb-139" value="" style="rounded=0;whiteSpace=wrap;html=1;shadow=0;glass=0;strokeColor=#d79b00;fillColor=#ffe6cc;" vertex="1" parent="1">
          <mxGeometry x="440" y="560" width="40" height="40" as="geometry" />
        </mxCell>
        <mxCell id="jISEXOWeR0vg6BHdLISb-140" value="" style="rounded=0;whiteSpace=wrap;html=1;shadow=0;glass=0;strokeColor=#d79b00;fillColor=#ffe6cc;" vertex="1" parent="1">
          <mxGeometry x="440" y="520" width="40" height="40" as="geometry" />
        </mxCell>
        <mxCell id="jISEXOWeR0vg6BHdLISb-141" value="" style="rounded=0;whiteSpace=wrap;html=1;shadow=0;glass=0;strokeColor=#d79b00;fillColor=#ffe6cc;" vertex="1" parent="1">
          <mxGeometry x="440" y="480" width="40" height="40" as="geometry" />
        </mxCell>
        <mxCell id="jISEXOWeR0vg6BHdLISb-142" value="" style="rounded=0;whiteSpace=wrap;html=1;shadow=0;glass=0;strokeColor=#d79b00;fillColor=#ffe6cc;" vertex="1" parent="1">
          <mxGeometry x="240" y="600" width="40" height="40" as="geometry" />
        </mxCell>
        <mxCell id="jISEXOWeR0vg6BHdLISb-143" value="" style="rounded=0;whiteSpace=wrap;html=1;shadow=0;glass=0;strokeColor=#d79b00;fillColor=#ffe6cc;" vertex="1" parent="1">
          <mxGeometry x="240" y="560" width="40" height="40" as="geometry" />
        </mxCell>
        <mxCell id="jISEXOWeR0vg6BHdLISb-144" value="" style="rounded=0;whiteSpace=wrap;html=1;shadow=0;glass=0;strokeColor=#d79b00;fillColor=#ffe6cc;" vertex="1" parent="1">
          <mxGeometry x="160" y="560" width="40" height="40" as="geometry" />
        </mxCell>
        <mxCell id="jISEXOWeR0vg6BHdLISb-145" value="" style="rounded=0;whiteSpace=wrap;html=1;shadow=0;glass=0;strokeColor=#d79b00;fillColor=#ffe6cc;" vertex="1" parent="1">
          <mxGeometry x="160" y="520" width="40" height="40" as="geometry" />
        </mxCell>
        <mxCell id="jISEXOWeR0vg6BHdLISb-146" value="" style="rounded=0;whiteSpace=wrap;html=1;shadow=0;glass=0;strokeColor=#d79b00;fillColor=#ffe6cc;" vertex="1" parent="1">
          <mxGeometry x="240" y="440" width="40" height="40" as="geometry" />
        </mxCell>
        <mxCell id="jISEXOWeR0vg6BHdLISb-148" value="" style="rounded=0;whiteSpace=wrap;html=1;shadow=0;glass=0;strokeColor=#d79b00;fillColor=#ffe6cc;" vertex="1" parent="1">
          <mxGeometry x="280" y="680" width="40" height="40" as="geometry" />
        </mxCell>
        <mxCell id="jISEXOWeR0vg6BHdLISb-149" value="" style="rounded=0;whiteSpace=wrap;html=1;shadow=0;glass=0;strokeColor=#d79b00;fillColor=#ffe6cc;" vertex="1" parent="1">
          <mxGeometry x="280" y="640" width="40" height="40" as="geometry" />
        </mxCell>
        <mxCell id="jISEXOWeR0vg6BHdLISb-151" value="" style="rounded=0;whiteSpace=wrap;html=1;shadow=0;glass=0;strokeColor=#d79b00;fillColor=#ffe6cc;" vertex="1" parent="1">
          <mxGeometry x="280" y="720" width="40" height="40" as="geometry" />
        </mxCell>
        <mxCell id="jISEXOWeR0vg6BHdLISb-152" value="" style="rounded=0;whiteSpace=wrap;html=1;shadow=0;glass=0;strokeColor=#d79b00;fillColor=#ffe6cc;" vertex="1" parent="1">
          <mxGeometry x="40" y="640" width="40" height="40" as="geometry" />
        </mxCell>
        <mxCell id="jISEXOWeR0vg6BHdLISb-153" value="" style="rounded=0;whiteSpace=wrap;html=1;shadow=0;glass=0;strokeColor=#d79b00;fillColor=#ffe6cc;" vertex="1" parent="1">
          <mxGeometry x="40" y="600" width="40" height="40" as="geometry" />
        </mxCell>
        <mxCell id="jISEXOWeR0vg6BHdLISb-154" value="" style="rounded=0;whiteSpace=wrap;html=1;shadow=0;glass=0;strokeColor=#d79b00;fillColor=#ffe6cc;" vertex="1" parent="1">
          <mxGeometry x="40" y="720" width="40" height="40" as="geometry" />
        </mxCell>
        <mxCell id="jISEXOWeR0vg6BHdLISb-155" value="" style="rounded=0;whiteSpace=wrap;html=1;shadow=0;glass=0;strokeColor=#d79b00;fillColor=#ffe6cc;" vertex="1" parent="1">
          <mxGeometry x="40" y="680" width="40" height="40" as="geometry" />
        </mxCell>
        <mxCell id="jISEXOWeR0vg6BHdLISb-157" value="" style="rounded=0;whiteSpace=wrap;html=1;shadow=0;glass=0;strokeColor=#d79b00;fillColor=#ffe6cc;" vertex="1" parent="1">
          <mxGeometry x="40" y="760" width="40" height="40" as="geometry" />
        </mxCell>
        <mxCell id="jISEXOWeR0vg6BHdLISb-158" value="" style="rounded=0;whiteSpace=wrap;html=1;fillColor=none;" vertex="1" parent="1">
          <mxGeometry y="400" width="520" height="440" as="geometry" />
        </mxCell>
      </root>
    </mxGraphModel>
  </diagram>
</mxfile>
